<svg width="402" height="403" viewBox="0 0 402 403" fill="none" xmlns="http://www.w3.org/2000/svg">
<circle cx="211" cy="163" r="141" fill="#1E1E1E"/>
<circle cx="211" cy="163" r="141" fill="url(#paint0_linear_4_232)"/>
<path fill-rule="evenodd" clip-rule="evenodd" d="M249.442 0C249.442 35.6157 278.045 64.4879 313.328 64.4879C318.369 64.4879 322.455 68.6125 322.455 73.7004C322.455 78.7883 318.369 82.913 313.328 82.913C287.525 82.913 264.501 70.9029 249.442 52.1185V196.534C249.442 228.759 223.564 254.881 191.641 254.881C159.718 254.881 133.839 228.759 133.839 196.534C133.839 164.31 159.718 138.188 191.641 138.188C206.939 138.188 220.849 144.188 231.189 153.984V0H249.442ZM231.189 196.534C231.189 174.487 213.482 156.613 191.641 156.613C169.798 156.613 152.092 174.487 152.092 196.534C152.092 218.582 169.798 236.456 191.641 236.456C213.482 236.456 231.189 218.582 231.189 196.534Z" fill="white"/>
<path d="M28.1534 356C28.0322 354.485 27.464 353.303 26.4489 352.455C25.4489 351.606 23.9261 351.182 21.8807 351.182C20.5777 351.182 19.5095 351.341 18.6761 351.659C17.858 351.962 17.2519 352.379 16.858 352.909C16.464 353.439 16.2595 354.045 16.2443 354.727C16.214 355.288 16.3125 355.795 16.5398 356.25C16.7822 356.689 17.161 357.091 17.6761 357.455C18.1913 357.803 18.8504 358.121 19.6534 358.409C20.4564 358.697 21.411 358.955 22.517 359.182L26.3352 360C28.911 360.545 31.1155 361.265 32.9489 362.159C34.7822 363.053 36.2822 364.106 37.4489 365.318C38.6155 366.515 39.4716 367.864 40.017 369.364C40.5777 370.864 40.8655 372.5 40.8807 374.273C40.8655 377.333 40.1004 379.924 38.5852 382.045C37.0701 384.167 34.9034 385.78 32.0852 386.886C29.2822 387.992 25.911 388.545 21.9716 388.545C17.9261 388.545 14.3958 387.947 11.3807 386.75C8.38068 385.553 6.04735 383.712 4.38068 381.227C2.72917 378.727 1.89583 375.53 1.88068 371.636H13.8807C13.9564 373.061 14.3125 374.258 14.9489 375.227C15.5852 376.197 16.4792 376.932 17.6307 377.432C18.7973 377.932 20.1837 378.182 21.7898 378.182C23.1383 378.182 24.267 378.015 25.1761 377.682C26.0852 377.348 26.7746 376.886 27.2443 376.295C27.714 375.705 27.9564 375.03 27.9716 374.273C27.9564 373.561 27.7216 372.939 27.267 372.409C26.8277 371.864 26.1004 371.379 25.0852 370.955C24.0701 370.515 22.6989 370.106 20.9716 369.727L16.3352 368.727C12.214 367.833 8.96402 366.341 6.58523 364.25C4.22159 362.144 3.04735 359.273 3.0625 355.636C3.04735 352.682 3.83523 350.098 5.42614 347.886C7.0322 345.659 9.25189 343.924 12.0852 342.682C14.9337 341.439 18.1989 340.818 21.8807 340.818C25.6383 340.818 28.8883 341.447 31.6307 342.705C34.3731 343.962 36.4867 345.735 37.9716 348.023C39.4716 350.295 40.2292 352.955 40.2443 356H28.1534ZM68.5057 372.727V353.091H81.0511V388H69.142V381.364H68.7784C68.0208 383.591 66.6951 385.333 64.8011 386.591C62.9072 387.833 60.6572 388.455 58.0511 388.455C55.6117 388.455 53.4754 387.894 51.642 386.773C49.8239 385.652 48.4072 384.106 47.392 382.136C46.392 380.167 45.8845 377.909 45.8693 375.364V353.091H58.4148V372.727C58.4299 374.455 58.8693 375.811 59.733 376.795C60.6117 377.78 61.839 378.273 63.4148 378.273C64.4602 378.273 65.3617 378.053 66.1193 377.614C66.892 377.159 67.483 376.523 67.892 375.705C68.3163 374.871 68.5208 373.879 68.5057 372.727ZM99.9773 368.364V388H87.4318V353.091H99.3409V359.727H99.7045C100.462 357.515 101.795 355.78 103.705 354.523C105.629 353.265 107.871 352.636 110.432 352.636C112.902 352.636 115.045 353.205 116.864 354.341C118.697 355.462 120.114 357.008 121.114 358.977C122.129 360.947 122.629 363.197 122.614 365.727V388H110.068V368.364C110.083 366.636 109.644 365.28 108.75 364.295C107.871 363.311 106.644 362.818 105.068 362.818C104.038 362.818 103.136 363.045 102.364 363.5C101.606 363.939 101.023 364.576 100.614 365.409C100.205 366.227 99.9924 367.212 99.9773 368.364ZM160.716 364.455H149.17C149.11 363.742 148.86 363.129 148.42 362.614C147.981 362.098 147.413 361.705 146.716 361.432C146.034 361.144 145.277 361 144.443 361C143.367 361 142.443 361.197 141.67 361.591C140.898 361.985 140.519 362.545 140.534 363.273C140.519 363.788 140.739 364.265 141.193 364.705C141.663 365.144 142.564 365.485 143.898 365.727L150.989 367C154.564 367.652 157.223 368.75 158.966 370.295C160.723 371.826 161.61 373.879 161.625 376.455C161.61 378.939 160.867 381.098 159.398 382.932C157.943 384.75 155.951 386.159 153.42 387.159C150.905 388.144 148.034 388.636 144.807 388.636C139.473 388.636 135.299 387.545 132.284 385.364C129.284 383.182 127.61 380.303 127.261 376.727H139.716C139.883 377.833 140.428 378.689 141.352 379.295C142.292 379.886 143.473 380.182 144.898 380.182C146.049 380.182 146.996 379.985 147.739 379.591C148.496 379.197 148.883 378.636 148.898 377.909C148.883 377.242 148.549 376.712 147.898 376.318C147.261 375.924 146.261 375.606 144.898 375.364L138.716 374.273C135.155 373.652 132.489 372.47 130.716 370.727C128.943 368.985 128.064 366.742 128.08 364C128.064 361.576 128.701 359.523 129.989 357.841C131.292 356.144 133.148 354.856 135.557 353.977C137.981 353.083 140.852 352.636 144.17 352.636C149.216 352.636 153.193 353.682 156.102 355.773C159.027 357.864 160.564 360.758 160.716 364.455ZM183.159 388.636C179.432 388.636 176.22 387.924 173.523 386.5C170.841 385.061 168.773 383 167.318 380.318C165.879 377.621 165.159 374.394 165.159 370.636C165.159 367.03 165.886 363.879 167.341 361.182C168.795 358.485 170.848 356.386 173.5 354.886C176.152 353.386 179.28 352.636 182.886 352.636C185.523 352.636 187.909 353.045 190.045 353.864C192.182 354.682 194.008 355.871 195.523 357.432C197.038 358.977 198.205 360.856 199.023 363.068C199.841 365.28 200.25 367.773 200.25 370.545V373.455H169.068V366.545H188.705C188.689 365.545 188.432 364.667 187.932 363.909C187.447 363.136 186.788 362.538 185.955 362.114C185.136 361.674 184.205 361.455 183.159 361.455C182.144 361.455 181.212 361.674 180.364 362.114C179.515 362.538 178.833 363.129 178.318 363.886C177.818 364.644 177.553 365.53 177.523 366.545V374C177.523 375.121 177.758 376.121 178.227 377C178.697 377.879 179.371 378.568 180.25 379.068C181.129 379.568 182.189 379.818 183.432 379.818C184.295 379.818 185.083 379.697 185.795 379.455C186.523 379.212 187.144 378.864 187.659 378.409C188.174 377.939 188.553 377.379 188.795 376.727H200.25C199.856 379.152 198.924 381.258 197.455 383.045C195.985 384.818 194.038 386.197 191.614 387.182C189.205 388.152 186.386 388.636 183.159 388.636ZM226.188 353.091V362.182H203.188V353.091H226.188ZM207.642 344.727H220.188V376.773C220.188 377.258 220.271 377.667 220.438 378C220.604 378.318 220.862 378.561 221.21 378.727C221.559 378.879 222.006 378.955 222.551 378.955C222.93 378.955 223.369 378.909 223.869 378.818C224.384 378.727 224.763 378.652 225.006 378.591L226.824 387.409C226.263 387.576 225.46 387.78 224.415 388.023C223.384 388.265 222.157 388.424 220.733 388.5C217.854 388.652 215.438 388.356 213.483 387.614C211.528 386.856 210.059 385.667 209.074 384.045C208.089 382.424 207.612 380.394 207.642 377.955V344.727ZM242.602 351.636V341.455H283.057V351.636H269.057V388H256.602V351.636H242.602ZM305.881 372.727V353.091H318.426V388H306.517V381.364H306.153C305.396 383.591 304.07 385.333 302.176 386.591C300.282 387.833 298.032 388.455 295.426 388.455C292.987 388.455 290.85 387.894 289.017 386.773C287.199 385.652 285.782 384.106 284.767 382.136C283.767 380.167 283.259 377.909 283.244 375.364V353.091H295.79V372.727C295.805 374.455 296.244 375.811 297.108 376.795C297.987 377.78 299.214 378.273 300.79 378.273C301.835 378.273 302.737 378.053 303.494 377.614C304.267 377.159 304.858 376.523 305.267 375.705C305.691 374.871 305.896 373.879 305.881 372.727ZM337.352 368.364V388H324.807V353.091H336.716V359.727H337.08C337.837 357.515 339.17 355.78 341.08 354.523C343.004 353.265 345.246 352.636 347.807 352.636C350.277 352.636 352.42 353.205 354.239 354.341C356.072 355.462 357.489 357.008 358.489 358.977C359.504 360.947 360.004 363.197 359.989 365.727V388H347.443V368.364C347.458 366.636 347.019 365.28 346.125 364.295C345.246 363.311 344.019 362.818 342.443 362.818C341.413 362.818 340.511 363.045 339.739 363.5C338.981 363.939 338.398 364.576 337.989 365.409C337.58 366.227 337.367 367.212 337.352 368.364ZM382.909 388.636C379.182 388.636 375.97 387.924 373.273 386.5C370.591 385.061 368.523 383 367.068 380.318C365.629 377.621 364.909 374.394 364.909 370.636C364.909 367.03 365.636 363.879 367.091 361.182C368.545 358.485 370.598 356.386 373.25 354.886C375.902 353.386 379.03 352.636 382.636 352.636C385.273 352.636 387.659 353.045 389.795 353.864C391.932 354.682 393.758 355.871 395.273 357.432C396.788 358.977 397.955 360.856 398.773 363.068C399.591 365.28 400 367.773 400 370.545V373.455H368.818V366.545H388.455C388.439 365.545 388.182 364.667 387.682 363.909C387.197 363.136 386.538 362.538 385.705 362.114C384.886 361.674 383.955 361.455 382.909 361.455C381.894 361.455 380.962 361.674 380.114 362.114C379.265 362.538 378.583 363.129 378.068 363.886C377.568 364.644 377.303 365.53 377.273 366.545V374C377.273 375.121 377.508 376.121 377.977 377C378.447 377.879 379.121 378.568 380 379.068C380.879 379.568 381.939 379.818 383.182 379.818C384.045 379.818 384.833 379.697 385.545 379.455C386.273 379.212 386.894 378.864 387.409 378.409C387.924 377.939 388.303 377.379 388.545 376.727H400C399.606 379.152 398.674 381.258 397.205 383.045C395.735 384.818 393.788 386.197 391.364 387.182C388.955 388.152 386.136 388.636 382.909 388.636Z" fill="white"/>
<defs>
<linearGradient id="paint0_linear_4_232" x1="317.5" y1="259" x2="189" y2="58.5" gradientUnits="userSpaceOnUse">
<stop offset="0.0343059" stop-color="#FF3216"/>
<stop offset="0.276376" stop-color="#FF0606" stop-opacity="0.8"/>
<stop offset="1" stop-opacity="0.62"/>
</linearGradient>
</defs>
</svg>
