<svg width="282" height="304" viewBox="0 0 282 304" fill="none" xmlns="http://www.w3.org/2000/svg">
<circle cx="141" cy="163" r="141" fill="#1E1E1E"/>
<circle cx="141" cy="163" r="141" fill="url(#paint0_linear_4_233)"/>
<path fill-rule="evenodd" clip-rule="evenodd" d="M191.355 0C191.355 37.0298 221.381 67.0482 258.419 67.0482C263.71 67.0482 268 71.3366 268 76.6265C268 81.9164 263.71 86.2048 258.419 86.2048C231.332 86.2048 207.163 73.7179 191.355 54.1877V204.337C191.355 237.841 164.189 265 130.677 265C97.1662 265 70 237.841 70 204.337C70 170.834 97.1662 143.675 130.677 143.675C146.737 143.675 161.339 149.912 172.194 160.097V0H191.355ZM172.194 204.337C172.194 181.415 153.606 162.831 130.677 162.831C107.749 162.831 89.1613 181.415 89.1613 204.337C89.1613 227.26 107.749 245.843 130.677 245.843C153.606 245.843 172.194 227.26 172.194 204.337Z" fill="white"/>
<defs>
<linearGradient id="paint0_linear_4_233" x1="247.5" y1="259" x2="119" y2="58.5" gradientUnits="userSpaceOnUse">
<stop offset="0.0343059" stop-color="#FF3216"/>
<stop offset="0.276376" stop-color="#FF0606" stop-opacity="0.8"/>
<stop offset="1" stop-opacity="0.62"/>
</linearGradient>
</defs>
</svg>
